<svg width="100" height="41" viewBox="0 0 100 41" fill="none" xmlns="http://www.w3.org/2000/svg">
<path d="M7.13942 31.0427C6.99519 32.485 6.20192 33.2663 4.75962 33.3865C4.08654 33.3865 3.4976 33.1701 2.99279 32.7374C2.51202 32.2807 2.27163 31.7158 2.27163 31.0427V14.0235C2.29567 13.3504 2.54808 12.7975 3.02885 12.3648C3.50962 11.9081 4.08654 11.6797 4.75962 11.6797H19.9038C22.0192 11.7518 23.6178 12.2206 24.6995 13.086C25.7813 13.9273 26.5625 14.8889 27.0433 15.9706C27.524 17.0523 27.7644 18.1461 27.7644 19.2518C27.7644 20.4057 27.524 21.5235 27.0433 22.6052C26.5865 23.6869 25.8053 24.6605 24.6995 25.5259C23.6178 26.3672 22.2356 26.7759 20.5529 26.7518H11.4663C10.7933 26.7518 10.2284 26.5115 9.77164 26.0307C9.29087 25.574 9.05048 25.0091 9.05048 24.336C9.05048 23.6629 9.27885 23.098 9.73558 22.6413C10.2163 22.1605 10.7933 21.9201 11.4663 21.9201H20.7692C21.226 21.9201 21.5986 21.7759 21.887 21.4874C22.1995 21.1749 22.4279 20.8264 22.5721 20.4417C22.7163 20.0331 22.7885 19.6244 22.7885 19.2158C22.7885 18.8312 22.7163 18.4466 22.5721 18.0619C22.4279 17.6533 22.1995 17.3047 21.887 17.0163C21.5986 16.7038 21.226 16.5355 20.7692 16.5115H8.07692C7.45192 16.5355 7.13942 16.848 7.13942 17.449V31.0427Z" fill="#08283B"/>
<path d="M55.8253 15.5295C57.0753 15.5295 58.3013 15.6738 59.5032 15.9622C60.7292 16.2507 61.895 16.6834 63.0008 17.2603C64.1066 17.8132 65.0801 18.5584 65.9215 19.4959C66.7868 20.4334 67.2556 21.5512 67.3277 22.8492V24.3637V30.5295C67.1835 31.9718 66.3902 32.7531 64.9479 32.8733C64.2748 32.8733 63.6859 32.6569 63.1811 32.2242C62.7003 31.7675 62.4599 31.2026 62.4599 30.5295V28.943V23.967C62.4118 23.2218 62.1234 22.6088 61.5945 22.1281C61.0897 21.6233 60.5128 21.2266 59.8638 20.9382C59.2388 20.6497 58.5777 20.4334 57.8806 20.2891C57.2075 20.1449 56.5224 20.0728 55.8253 20.0728C55.1282 20.0728 54.4311 20.1449 53.734 20.2891C53.0609 20.4334 52.3998 20.6497 51.7508 20.9382C51.1258 21.2266 50.5489 21.6233 50.02 22.1281C49.5152 22.6088 49.2388 23.2218 49.1907 23.967V28.943V30.5295C49.0705 31.9718 48.2893 32.7531 46.8469 32.8733C46.1739 32.8733 45.5849 32.6569 45.0801 32.2242C44.5993 31.7675 44.359 31.2026 44.359 30.5295V24.3637V22.8492C44.4311 21.5512 44.8878 20.4334 45.7292 19.4959C46.5705 18.5584 47.5441 17.8132 48.6498 17.2603C49.7556 16.6834 50.9094 16.2507 52.1114 15.9622C53.3373 15.6738 54.5753 15.5295 55.8253 15.5295ZM92.1354 21.8396C92.1354 21.2387 91.8229 20.9262 91.1979 20.9021H78.5777C78.121 20.9262 77.7243 21.1305 77.3878 21.5151C77.0513 21.8757 76.7989 22.3084 76.6306 22.8132C76.4864 23.2939 76.4143 23.7867 76.4143 24.2915C76.4143 24.7723 76.4864 25.2651 76.6306 25.7699C76.7989 26.2507 77.0513 26.6834 77.3878 27.068C77.7243 27.4286 78.121 27.6088 78.5777 27.6088H87.8085C88.4816 27.6088 89.0465 27.8492 89.5032 28.33C89.984 28.7867 90.2244 29.3516 90.2244 30.0247C90.2244 30.6978 89.984 31.2627 89.5032 31.7194C89.0465 32.2002 88.4816 32.4406 87.8085 32.4406H78.7219C77.0393 32.4165 75.645 31.9478 74.5393 31.0343C73.4575 30.0968 72.6763 29.0512 72.1955 27.8973C71.7388 26.7194 71.5104 25.5055 71.5104 24.2555C71.5104 23.0536 71.7508 21.8757 72.2316 20.7218C72.7123 19.5439 73.4936 18.4983 74.5753 17.5848C75.657 16.6473 77.2556 16.1425 79.371 16.0704H94.5152C95.1883 16.0704 95.7652 16.2988 96.246 16.7555C96.7268 17.1882 96.9792 17.7411 97.0032 18.4141V29.8084C97.0032 31.7314 96.7388 33.5463 96.2099 35.2531C95.7292 36.7675 94.9359 38.0415 93.8301 39.0752C92.7484 40.1329 91.3662 40.7098 89.6835 40.806H77.2075C76.5585 40.7819 76.0056 40.5415 75.5489 40.0848C75.1162 39.6521 74.8878 39.1113 74.8638 38.4622C74.8638 37.7891 75.0801 37.2122 75.5128 36.7314C75.9695 36.2507 76.5344 35.9983 77.2075 35.9742H88.4575C89.371 35.9262 90.1282 35.5776 90.7292 34.9286C91.3301 34.2795 91.7147 33.5223 91.883 32.6569C92.0513 31.7915 92.1354 30.6738 92.1354 29.3036V21.8396Z" fill="#08283B"/>
<path d="M32.9594 21.0926C33.1756 19.8673 34.2403 18.9741 35.4845 18.9741H36.3102C37.5545 18.9741 38.6191 19.8673 38.8353 21.0926L41.0073 33.4003C41.2844 34.9704 40.0765 36.41 38.4822 36.41H33.3126C31.7182 36.41 30.5104 34.9704 30.7875 33.4003L32.9594 21.0926Z" fill="#FF5A00" stroke="#08283B" stroke-width="1.53846"/>
<g clip-path="url(#clip0_2079_1193)">
<path d="M38.4216 17.1335C38.6299 17.2527 38.8659 17.315 39.106 17.314C39.346 17.3131 39.5816 17.249 39.789 17.1282C39.9964 17.0074 40.1684 16.8342 40.2876 16.6258C40.4069 16.4175 40.4692 16.1815 40.4683 15.9414" fill="#FF5A00"/>
<path d="M40.8799 5.41511C40.0884 4.05615 38.9275 3.14974 37.6334 2.55823L40.8799 5.41511Z" fill="#FF5A00"/>
<path d="M32.3295 16.1919C32.3016 16.3214 32.3119 16.4563 32.3592 16.5801C32.4066 16.7039 32.4888 16.8112 32.5961 16.8891C32.7033 16.967 32.8309 17.0121 32.9632 17.0188C33.0956 17.0255 33.227 16.9936 33.3416 16.927L42.7953 11.421C42.9098 11.3544 43.0025 11.2559 43.0621 11.1375C43.1217 11.0192 43.1456 10.8861 43.1309 10.7544C43.1162 10.6227 43.0636 10.4981 42.9794 10.3957C42.8953 10.2934 42.7832 10.2177 42.6568 10.1779C41.3991 9.82551 40.0647 9.44985 38.5164 6.7916C37.9688 5.85138 37.0702 5.16719 36.0181 4.88957C34.9661 4.61194 33.8468 4.76361 32.9066 5.31121C31.9664 5.85882 31.2822 6.75749 31.0046 7.80955C30.7269 8.8616 30.8786 9.98085 31.4262 10.9211C32.9744 13.5793 32.6421 14.9258 32.3295 16.1919Z" fill="#FF5A00"/>
<path d="M28.1798 8.0642C28.0557 9.4816 28.2713 10.9386 29.0628 12.2976L28.1798 8.0642Z" fill="#FF5A00"/>
<path d="M38.4216 17.1335C38.6299 17.2527 38.8659 17.315 39.106 17.314C39.346 17.3131 39.5816 17.249 39.789 17.1282C39.9964 17.0074 40.1684 16.8342 40.2876 16.6258C40.4069 16.4175 40.4692 16.1815 40.4683 15.9414M40.8799 5.41511C40.0884 4.05615 38.9275 3.14974 37.6334 2.55823M28.1798 8.0642C28.0557 9.4816 28.2713 10.9386 29.0628 12.2976M32.3295 16.1919C32.3016 16.3214 32.3119 16.4563 32.3592 16.5801C32.4066 16.7039 32.4888 16.8112 32.5961 16.8891C32.7033 16.967 32.8309 17.0121 32.9632 17.0188C33.0956 17.0255 33.227 16.9936 33.3416 16.927L42.7953 11.421C42.9098 11.3544 43.0025 11.2559 43.0621 11.1375C43.1217 11.0192 43.1456 10.8861 43.1309 10.7544C43.1162 10.6227 43.0636 10.4981 42.9794 10.3957C42.8953 10.2934 42.7832 10.2177 42.6568 10.1779C41.3991 9.82552 40.0647 9.44985 38.5164 6.7916C37.9688 5.85138 37.0702 5.16719 36.0181 4.88957C34.9661 4.61194 33.8468 4.76361 32.9066 5.31121C31.9664 5.85882 31.2822 6.75749 31.0046 7.80955C30.7269 8.8616 30.8786 9.98085 31.4262 10.9211C32.9744 13.5793 32.6421 14.9258 32.3295 16.1919Z" stroke="#08283B" stroke-width="1.53846" stroke-linecap="round" stroke-linejoin="round"/>
</g>
<defs>
<clipPath id="clip0_2079_1193">
<rect width="16.4103" height="16.4103" fill="white" transform="translate(25.1282 8.25879) rotate(-30.2172)"/>
</clipPath>
</defs>
</svg>
