<svg width="100" height="41" viewBox="0 0 100 41" fill="none" xmlns="http://www.w3.org/2000/svg">
<path d="M7.13942 31.0425C6.99519 32.4848 6.20192 33.266 4.75962 33.3862C4.08654 33.3862 3.4976 33.1699 2.99279 32.7372C2.51202 32.2804 2.27163 31.7155 2.27163 31.0425V14.0232C2.29567 13.3502 2.54808 12.7973 3.02885 12.3646C3.50962 11.9078 4.08654 11.6795 4.75962 11.6795H19.9038C22.0192 11.7516 23.6178 12.2203 24.6995 13.0857C25.7813 13.9271 26.5625 14.8886 27.0433 15.9703C27.524 17.0521 27.7644 18.1458 27.7644 19.2516C27.7644 20.4054 27.524 21.5232 27.0433 22.605C26.5865 23.6867 25.8053 24.6602 24.6995 25.5256C23.6178 26.367 22.2356 26.7756 20.5529 26.7516H11.4663C10.7933 26.7516 10.2284 26.5112 9.77164 26.0304C9.29087 25.5737 9.05048 25.0088 9.05048 24.3357C9.05048 23.6627 9.27885 23.0977 9.73558 22.641C10.2163 22.1602 10.7933 21.9199 11.4663 21.9199H20.7692C21.226 21.9199 21.5986 21.7756 21.887 21.4872C22.1995 21.1747 22.4279 20.8261 22.5721 20.4415C22.7163 20.0328 22.7885 19.6242 22.7885 19.2155C22.7885 18.8309 22.7163 18.4463 22.5721 18.0617C22.4279 17.653 22.1995 17.3045 21.887 17.016C21.5986 16.7035 21.226 16.5352 20.7692 16.5112H8.07692C7.45192 16.5352 7.13942 16.8477 7.13942 17.4487V31.0425Z" fill="#08283B"/>
<path d="M55.8253 15.5296C57.0753 15.5296 58.3013 15.6739 59.5032 15.9623C60.7292 16.2508 61.895 16.6835 63.0008 17.2604C64.1066 17.8133 65.0801 18.5585 65.9215 19.496C66.7868 20.4335 67.2556 21.5513 67.3277 22.8494V24.3638V30.5296C67.1835 31.972 66.3902 32.7532 64.9479 32.8734C64.2748 32.8734 63.6859 32.657 63.1811 32.2244C62.7003 31.7676 62.4599 31.2027 62.4599 30.5296V28.9431V23.9671C62.4118 23.222 62.1234 22.609 61.5945 22.1282C61.0897 21.6234 60.5128 21.2268 59.8638 20.9383C59.2388 20.6498 58.5777 20.4335 57.8806 20.2893C57.2075 20.145 56.5224 20.0729 55.8253 20.0729C55.1282 20.0729 54.4311 20.145 53.734 20.2893C53.0609 20.4335 52.3998 20.6498 51.7508 20.9383C51.1258 21.2268 50.5489 21.6234 50.02 22.1282C49.5152 22.609 49.2388 23.222 49.1907 23.9671V28.9431V30.5296C49.0705 31.972 48.2893 32.7532 46.8469 32.8734C46.1739 32.8734 45.5849 32.657 45.0801 32.2244C44.5993 31.7676 44.359 31.2027 44.359 30.5296V24.3638V22.8494C44.4311 21.5513 44.8878 20.4335 45.7292 19.496C46.5705 18.5585 47.5441 17.8133 48.6498 17.2604C49.7556 16.6835 50.9094 16.2508 52.1114 15.9623C53.3373 15.6739 54.5753 15.5296 55.8253 15.5296ZM92.1354 21.8397C92.1354 21.2388 91.8229 20.9263 91.1979 20.9022H78.5777C78.121 20.9263 77.7243 21.1306 77.3878 21.5152C77.0513 21.8758 76.7989 22.3085 76.6306 22.8133C76.4864 23.2941 76.4143 23.7869 76.4143 24.2917C76.4143 24.7724 76.4864 25.2652 76.6306 25.77C76.7989 26.2508 77.0513 26.6835 77.3878 27.0681C77.7243 27.4287 78.121 27.609 78.5777 27.609H87.8085C88.4816 27.609 89.0465 27.8494 89.5032 28.3301C89.984 28.7869 90.2244 29.3518 90.2244 30.0248C90.2244 30.6979 89.984 31.2628 89.5032 31.7195C89.0465 32.2003 88.4816 32.4407 87.8085 32.4407H78.7219C77.0393 32.4167 75.645 31.9479 74.5393 31.0345C73.4575 30.097 72.6763 29.0513 72.1955 27.8974C71.7388 26.7195 71.5104 25.5056 71.5104 24.2556C71.5104 23.0537 71.7508 21.8758 72.2316 20.722C72.7123 19.5441 73.4936 18.4984 74.5753 17.5849C75.657 16.6474 77.2556 16.1426 79.371 16.0705H94.5152C95.1883 16.0705 95.7652 16.2989 96.246 16.7556C96.7268 17.1883 96.9792 17.7412 97.0032 18.4143V29.8085C97.0032 31.7316 96.7388 33.5465 96.2099 35.2532C95.7292 36.7676 94.9359 38.0417 93.8301 39.0753C92.7484 40.133 91.3662 40.7099 89.6835 40.8061H77.2075C76.5585 40.782 76.0056 40.5417 75.5489 40.0849C75.1162 39.6522 74.8878 39.1114 74.8638 38.4623C74.8638 37.7893 75.0801 37.2123 75.5128 36.7316C75.9695 36.2508 76.5344 35.9984 77.2075 35.9744H88.4575C89.371 35.9263 90.1282 35.5777 90.7292 34.9287C91.3301 34.2796 91.7147 33.5224 91.883 32.657C92.0513 31.7917 92.1354 30.6739 92.1354 29.3037V21.8397Z" fill="#08283B"/>
<path d="M32.9594 21.0929C33.1756 19.8676 34.2403 18.9744 35.4845 18.9744H36.3102C37.5545 18.9744 38.6191 19.8676 38.8353 21.0929L41.0073 33.4006C41.2844 34.9707 40.0765 36.4103 38.4822 36.4103H33.3126C31.7182 36.4103 30.5104 34.9707 30.7875 33.4006L32.9594 21.0929Z" fill="#FF5A00" stroke="#08283B" stroke-width="1.53846"/>
<g clip-path="url(#clip0_3_76)">
<path d="M38.4216 17.1333C38.6299 17.2526 38.8659 17.3148 39.106 17.3139C39.346 17.313 39.5816 17.2489 39.789 17.1281C39.9964 17.0073 40.1684 16.834 40.2876 16.6257C40.4069 16.4174 40.4692 16.1813 40.4683 15.9413" fill="#FF5A00"/>
<path d="M40.8799 5.41499C40.0884 4.05603 38.9275 3.14962 37.6334 2.55811L40.8799 5.41499Z" fill="#FF5A00"/>
<path d="M32.3295 16.1918C32.3016 16.3213 32.3119 16.4562 32.3592 16.58C32.4066 16.7038 32.4888 16.8111 32.5961 16.889C32.7033 16.9669 32.8309 17.0119 32.9632 17.0187C33.0956 17.0254 33.227 16.9935 33.3416 16.9269L42.7953 11.4209C42.9098 11.3543 43.0025 11.2558 43.0621 11.1374C43.1217 11.0191 43.1456 10.8859 43.1309 10.7542C43.1162 10.6225 43.0636 10.4979 42.9794 10.3956C42.8953 10.2933 42.7832 10.2176 42.6568 10.1778C41.3991 9.82539 40.0647 9.44973 38.5164 6.79148C37.9688 5.85125 37.0702 5.16707 36.0181 4.88945C34.9661 4.61182 33.8468 4.76349 32.9066 5.31109C31.9664 5.85869 31.2822 6.75737 31.0046 7.80942C30.7269 8.86148 30.8786 9.98073 31.4262 10.921C32.9744 13.5792 32.6421 14.9256 32.3295 16.1918Z" fill="#FF5A00"/>
<path d="M28.1798 8.06407C28.0557 9.48147 28.2713 10.9385 29.0628 12.2974L28.1798 8.06407Z" fill="#FF5A00"/>
<path d="M38.4216 17.1333C38.6299 17.2526 38.8659 17.3148 39.106 17.3139C39.346 17.313 39.5816 17.2489 39.789 17.1281C39.9964 17.0073 40.1684 16.834 40.2876 16.6257C40.4069 16.4174 40.4692 16.1813 40.4683 15.9413M40.8799 5.41499C40.0884 4.05603 38.9275 3.14962 37.6334 2.55811M28.1798 8.06407C28.0557 9.48147 28.2713 10.9385 29.0628 12.2974M32.3295 16.1918C32.3016 16.3213 32.3119 16.4562 32.3592 16.58C32.4066 16.7038 32.4888 16.8111 32.5961 16.889C32.7033 16.9669 32.8309 17.0119 32.9632 17.0187C33.0956 17.0254 33.227 16.9935 33.3416 16.9269L42.7953 11.4209C42.9098 11.3543 43.0025 11.2558 43.0621 11.1374C43.1217 11.0191 43.1456 10.8859 43.1309 10.7542C43.1162 10.6225 43.0636 10.4979 42.9794 10.3956C42.8953 10.2933 42.7832 10.2176 42.6568 10.1778C41.3991 9.82539 40.0647 9.44973 38.5164 6.79148C37.9688 5.85125 37.0702 5.16707 36.0181 4.88945C34.9661 4.61182 33.8468 4.76349 32.9066 5.31109C31.9664 5.85869 31.2822 6.75737 31.0046 7.80942C30.7269 8.86148 30.8786 9.98073 31.4262 10.921C32.9744 13.5792 32.6421 14.9256 32.3295 16.1918Z" stroke="#08283B" stroke-width="1.53846" stroke-linecap="round" stroke-linejoin="round"/>
</g>
<defs>
<clipPath id="clip0_3_76">
<rect width="16.4103" height="16.4103" fill="white" transform="translate(25.1282 8.25891) rotate(-30.2172)"/>
</clipPath>
</defs>
</svg>
