<svg width="280" height="280" viewBox="0 0 280 280" fill="none" xmlns="http://www.w3.org/2000/svg">
<path d="M214.459 108.79C214.459 108.79 189.42 130.768 218.251 177.83C243.856 219.626 186.304 237.743 161.505 232.892C129.378 226.607 110.933 186.002 86.3649 198.868C61.7969 211.734 37.4581 153.432 73.1947 131.978C117.649 105.29 89.119 89.7818 93.1116 70.2137C95.9773 56.1699 136.756 34.4568 158.744 59.2249C177.246 80.0669 186.32 72.6105 194.777 69.8282C206.974 65.8152 233.597 86.6888 214.459 108.79Z" fill="#FFEFE6"/>
<path d="M143.565 133.557L135.362 167.205C135.057 168.453 135.002 169.749 135.198 171.018C135.394 172.287 135.839 173.506 136.506 174.603C137.173 175.701 138.05 176.656 139.087 177.414C140.123 178.173 141.299 178.72 142.547 179.024L183.346 188.97C184.395 200.488 193.927 201.339 197.688 201.734C197.725 201.736 197.761 201.726 197.792 201.705C197.822 201.684 197.845 201.653 197.857 201.618C197.868 201.583 197.868 201.545 197.855 201.51C197.843 201.475 197.819 201.445 197.788 201.425C195.087 199.779 194.281 195.266 194.101 191.592L197.13 192.33C198.378 192.635 199.673 192.691 200.943 192.494C202.212 192.298 203.43 191.854 204.528 191.186C205.625 190.519 206.581 189.642 207.339 188.605C208.098 187.569 208.644 186.393 208.948 185.145L217.151 151.496C217.456 150.248 217.512 148.953 217.315 147.684C217.119 146.414 216.675 145.196 216.007 144.098C215.34 143.001 214.463 142.046 213.427 141.287C212.39 140.529 211.214 139.982 209.966 139.678L155.384 126.371C154.136 126.067 152.84 126.011 151.571 126.207C150.301 126.403 149.083 126.848 147.986 127.515C146.888 128.183 145.933 129.06 145.174 130.096C144.416 131.133 143.869 132.309 143.565 133.557Z" fill="#FFB38A"/>
<path d="M211.241 150.156L188.428 144.595C188.277 144.558 188.126 144.65 188.089 144.8L186.919 149.601C186.882 149.751 186.974 149.903 187.125 149.939L209.938 155.501C210.088 155.538 210.24 155.446 210.277 155.295L211.447 150.495C211.484 150.345 211.391 150.193 211.241 150.156Z" fill="#FDFDFD"/>
<path d="M207.984 163.518L146.172 148.449C146.021 148.413 145.87 148.505 145.833 148.655L144.663 153.456C144.626 153.606 144.718 153.757 144.869 153.794L206.681 168.863C206.831 168.9 206.983 168.808 207.019 168.658L208.19 163.857C208.226 163.707 208.134 163.555 207.984 163.518Z" fill="#FFCCB0"/>
<path d="M204.726 176.881L142.914 161.811C142.764 161.775 142.612 161.867 142.576 162.017L141.405 166.818C141.369 166.968 141.461 167.12 141.611 167.156L203.423 182.226C203.573 182.262 203.725 182.17 203.761 182.02L204.932 177.219C204.968 177.069 204.876 176.917 204.726 176.881Z" fill="#FFCCB0"/>
<path d="M166.536 93.1922L179.95 136.27C180.448 137.868 180.626 139.547 180.475 141.214C180.323 142.88 179.845 144.5 179.067 145.982C178.289 147.463 177.227 148.777 175.941 149.848C174.655 150.919 173.171 151.726 171.574 152.223L119.343 168.487C118.92 183.547 106.597 185.433 101.74 186.253C101.692 186.259 101.643 186.249 101.601 186.225C101.559 186.2 101.526 186.162 101.509 186.117C101.491 186.072 101.488 186.022 101.502 185.975C101.516 185.929 101.545 185.888 101.584 185.86C104.961 183.499 105.64 177.566 105.574 172.774L101.696 173.982C100.099 174.479 98.4189 174.658 96.7526 174.506C95.0864 174.355 93.4663 173.876 91.9849 173.098C90.5035 172.321 89.1899 171.258 88.1191 169.973C87.0484 168.687 86.2414 167.203 85.7443 165.606L72.3297 122.528C71.8318 120.93 71.6535 119.25 71.805 117.584C71.9565 115.917 72.4349 114.297 73.2128 112.816C73.9906 111.334 75.0528 110.021 76.3385 108.95C77.6242 107.879 79.1084 107.072 80.7061 106.575L150.583 84.8158C152.18 84.3179 153.86 84.1396 155.527 84.2911C157.193 84.4426 158.813 84.921 160.295 85.6988C161.776 86.4767 163.09 87.5389 164.161 88.8246C165.232 90.1103 166.039 91.5944 166.536 93.1922Z" fill="#FF7B33"/>
<path d="M117.186 108.621L79.7667 120.258C79.619 120.304 79.5365 120.461 79.5824 120.609L81.5446 126.918C81.5905 127.066 81.7475 127.148 81.8951 127.102L119.314 115.465C119.462 115.419 119.544 115.262 119.499 115.115L117.536 108.805C117.49 108.658 117.334 108.575 117.186 108.621Z" fill="#FDFDFD"/>
<path d="M164.407 112.619L85.1129 137.312C84.9653 137.358 84.8829 137.515 84.9288 137.663L86.8931 143.971C86.9391 144.118 87.0961 144.201 87.2437 144.155L166.538 119.462C166.686 119.416 166.768 119.259 166.722 119.111L164.758 112.804C164.712 112.656 164.555 112.573 164.407 112.619Z" fill="#FFCCB0"/>
<path d="M169.727 129.814L90.4139 154.479C90.2662 154.525 90.1837 154.682 90.2296 154.83L92.1918 161.139C92.2377 161.287 92.3947 161.369 92.5424 161.323L171.855 136.658C172.003 136.612 172.085 136.455 172.04 136.307L170.077 129.998C170.031 129.85 169.874 129.768 169.727 129.814Z" fill="#FFCCB0"/>
</svg>
